<svg width="1600" height="960" viewBox="0 0 1600 960" fill="none" xmlns="http://www.w3.org/2000/svg">
<rect width="1600" height="960" fill="#27272A"/>
<path d="M222.833 831.817V832.317H223.333H429.583C488.74 832.317 539.584 820.656 582.097 797.312C624.798 773.969 657.538 740.468 680.311 696.821C703.272 653.175 714.742 601.008 714.742 540.34C714.742 479.861 703.272 427.883 680.309 384.425C657.537 340.968 624.987 307.658 582.664 284.504C540.341 261.16 489.876 249.499 431.288 249.499H223.333H222.833V249.999V831.817ZM572.027 646.38L572.026 646.382C559.57 673.56 540.895 693.644 516.001 706.658C491.279 719.49 460.776 725.92 424.47 725.92H346.845V355.897H424.754C461.06 355.897 491.563 362.326 516.285 375.159C540.989 387.982 559.569 407.971 572.026 435.151L572.028 435.153C584.676 462.338 591.015 497.392 591.015 540.34C591.015 583.668 584.676 619.006 572.027 646.38Z" stroke="white" stroke-opacity="0.4"/>
<path d="M82.8333 711.818V712.318H83.3333H289.583C348.74 712.318 399.584 700.657 442.097 677.313C484.798 653.97 517.538 620.469 540.311 576.822C563.272 533.175 574.743 481.009 574.743 420.341C574.743 359.862 563.272 307.884 540.31 264.426C517.538 220.97 484.987 187.659 442.664 164.505C400.342 141.161 349.876 129.5 291.288 129.5H83.3333H82.8333V130V711.818ZM432.027 526.381L432.027 526.383C419.57 553.561 400.895 573.645 376.001 586.659C351.279 599.491 320.776 605.92 284.47 605.92H206.845V235.898H284.754C321.061 235.898 351.564 242.327 376.285 255.16C400.989 267.983 419.569 287.972 432.027 315.152L432.028 315.154C444.676 342.339 451.015 377.392 451.015 420.341C451.015 463.669 444.676 499.007 432.027 526.381Z" stroke="white"/>
<path d="M825 421H807.045V362.818H825.795C831.439 362.818 836.269 363.983 840.284 366.312C844.299 368.623 847.377 371.947 849.517 376.284C851.657 380.602 852.727 385.773 852.727 391.795C852.727 397.856 851.648 403.074 849.489 407.449C847.33 411.805 844.186 415.157 840.057 417.506C835.928 419.835 830.909 421 825 421ZM814.091 414.75H824.545C829.356 414.75 833.343 413.822 836.506 411.966C839.669 410.11 842.027 407.468 843.58 404.04C845.133 400.612 845.909 396.53 845.909 391.795C845.909 387.098 845.142 383.055 843.608 379.665C842.074 376.256 839.782 373.642 836.733 371.824C833.684 369.987 829.886 369.068 825.341 369.068H814.091V414.75ZM904.997 421H897.611L918.975 362.818H926.247L947.611 421H940.225L922.838 372.023H922.384L904.997 421ZM907.725 398.273H937.497V404.523H907.725V398.273ZM1043.83 391.909C1043.83 398.045 1042.72 403.348 1040.51 407.818C1038.29 412.288 1035.25 415.735 1031.39 418.159C1027.52 420.583 1023.11 421.795 1018.15 421.795C1013.19 421.795 1008.77 420.583 1004.91 418.159C1001.05 415.735 998.006 412.288 995.79 407.818C993.574 403.348 992.466 398.045 992.466 391.909C992.466 385.773 993.574 380.47 995.79 376C998.006 371.53 1001.05 368.083 1004.91 365.659C1008.77 363.235 1013.19 362.023 1018.15 362.023C1023.11 362.023 1027.52 363.235 1031.39 365.659C1035.25 368.083 1038.29 371.53 1040.51 376C1042.72 380.47 1043.83 385.773 1043.83 391.909ZM1037.01 391.909C1037.01 386.871 1036.17 382.619 1034.48 379.153C1032.82 375.688 1030.55 373.064 1027.69 371.284C1024.85 369.504 1021.67 368.614 1018.15 368.614C1014.63 368.614 1011.43 369.504 1008.57 371.284C1005.73 373.064 1003.47 375.688 1001.78 379.153C1000.12 382.619 999.285 386.871 999.285 391.909C999.285 396.947 1000.12 401.199 1001.78 404.665C1003.47 408.131 1005.73 410.754 1008.57 412.534C1011.43 414.314 1014.63 415.205 1018.15 415.205C1021.67 415.205 1024.85 414.314 1027.69 412.534C1030.55 410.754 1032.82 408.131 1034.48 404.665C1036.17 401.199 1037.01 396.947 1037.01 391.909ZM1136.25 381C1135.62 379.087 1134.8 377.373 1133.78 375.858C1132.77 374.324 1131.57 373.017 1130.17 371.938C1128.79 370.858 1127.22 370.034 1125.45 369.466C1123.69 368.898 1121.76 368.614 1119.66 368.614C1116.21 368.614 1113.08 369.504 1110.26 371.284C1107.43 373.064 1105.19 375.688 1103.52 379.153C1101.86 382.619 1101.02 386.871 1101.02 391.909C1101.02 396.947 1101.86 401.199 1103.55 404.665C1105.24 408.131 1107.52 410.754 1110.4 412.534C1113.28 414.314 1116.51 415.205 1120.11 415.205C1123.45 415.205 1126.38 414.494 1128.92 413.074C1131.48 411.634 1133.47 409.608 1134.89 406.994C1136.33 404.362 1137.04 401.265 1137.04 397.705L1139.2 398.159H1121.7V391.909H1143.86V398.159C1143.86 402.951 1142.84 407.117 1140.79 410.659C1138.77 414.201 1135.97 416.947 1132.39 418.898C1128.83 420.83 1124.73 421.795 1120.11 421.795C1114.96 421.795 1110.44 420.583 1106.53 418.159C1102.65 415.735 1099.62 412.288 1097.44 407.818C1095.28 403.348 1094.2 398.045 1094.2 391.909C1094.2 387.307 1094.82 383.169 1096.05 379.494C1097.3 375.801 1099.06 372.657 1101.33 370.062C1103.61 367.468 1106.3 365.479 1109.4 364.097C1112.51 362.714 1115.93 362.023 1119.66 362.023C1122.73 362.023 1125.59 362.487 1128.24 363.415C1130.91 364.324 1133.29 365.621 1135.37 367.307C1137.47 368.973 1139.22 370.972 1140.62 373.301C1142.03 375.612 1142.99 378.178 1143.52 381H1136.25ZM1195.82 421V377.364H1202.3V383.955H1202.75C1203.55 381.795 1204.99 380.044 1207.07 378.699C1209.15 377.354 1211.5 376.682 1214.12 376.682C1214.61 376.682 1215.22 376.691 1215.96 376.71C1216.7 376.729 1217.26 376.758 1217.64 376.795V383.614C1217.41 383.557 1216.89 383.472 1216.08 383.358C1215.28 383.225 1214.44 383.159 1213.55 383.159C1211.43 383.159 1209.53 383.604 1207.87 384.494C1206.22 385.366 1204.91 386.578 1203.95 388.131C1203 389.665 1202.53 391.417 1202.53 393.386V421H1195.82ZM1279.23 422.023C1276.46 422.023 1273.95 421.502 1271.7 420.46C1269.45 419.4 1267.66 417.875 1266.33 415.886C1265 413.879 1264.34 411.455 1264.34 408.614C1264.34 406.114 1264.83 404.087 1265.82 402.534C1266.8 400.962 1268.12 399.731 1269.77 398.841C1271.41 397.951 1273.23 397.288 1275.22 396.852C1277.23 396.398 1279.25 396.038 1281.27 395.773C1283.92 395.432 1286.07 395.176 1287.72 395.006C1289.39 394.816 1290.6 394.504 1291.36 394.068C1292.13 393.633 1292.52 392.875 1292.52 391.795V391.568C1292.52 388.765 1291.76 386.587 1290.22 385.034C1288.71 383.481 1286.41 382.705 1283.32 382.705C1280.12 382.705 1277.61 383.405 1275.79 384.807C1273.97 386.208 1272.69 387.705 1271.95 389.295L1265.59 387.023C1266.73 384.371 1268.24 382.307 1270.14 380.83C1272.05 379.333 1274.13 378.292 1276.39 377.705C1278.66 377.098 1280.89 376.795 1283.09 376.795C1284.49 376.795 1286.1 376.966 1287.92 377.307C1289.76 377.629 1291.53 378.301 1293.23 379.324C1294.96 380.347 1296.39 381.89 1297.52 383.955C1298.66 386.019 1299.23 388.784 1299.23 392.25V421H1292.52V415.091H1292.18C1291.73 416.038 1290.97 417.051 1289.91 418.131C1288.85 419.21 1287.44 420.129 1285.68 420.886C1283.91 421.644 1281.77 422.023 1279.23 422.023ZM1280.25 416C1282.9 416 1285.14 415.479 1286.95 414.438C1288.79 413.396 1290.17 412.051 1291.1 410.403C1292.05 408.756 1292.52 407.023 1292.52 405.205V399.068C1292.24 399.409 1291.61 399.722 1290.65 400.006C1289.7 400.271 1288.6 400.508 1287.35 400.716C1286.12 400.905 1284.92 401.076 1283.74 401.227C1282.59 401.36 1281.65 401.473 1280.93 401.568C1279.19 401.795 1277.56 402.165 1276.05 402.676C1274.55 403.169 1273.34 403.917 1272.41 404.92C1271.5 405.905 1271.05 407.25 1271.05 408.955C1271.05 411.284 1271.91 413.045 1273.63 414.239C1275.37 415.413 1277.58 416 1280.25 416ZM1352.26 437.364V377.364H1358.74V384.295H1359.54C1360.03 383.538 1360.71 382.572 1361.58 381.398C1362.47 380.205 1363.74 379.144 1365.39 378.216C1367.06 377.269 1369.31 376.795 1372.15 376.795C1375.83 376.795 1379.06 377.714 1381.87 379.551C1384.67 381.388 1386.86 383.992 1388.43 387.364C1390 390.735 1390.79 394.712 1390.79 399.295C1390.79 403.917 1390 407.922 1388.43 411.312C1386.86 414.684 1384.68 417.297 1381.9 419.153C1379.11 420.991 1375.9 421.909 1372.26 421.909C1369.46 421.909 1367.22 421.445 1365.53 420.517C1363.85 419.57 1362.55 418.5 1361.64 417.307C1360.73 416.095 1360.03 415.091 1359.54 414.295H1358.97V437.364H1352.26ZM1358.86 399.182C1358.86 402.477 1359.34 405.384 1360.3 407.903C1361.27 410.403 1362.68 412.364 1364.54 413.784C1366.39 415.186 1368.67 415.886 1371.36 415.886C1374.16 415.886 1376.5 415.148 1378.37 413.67C1380.27 412.174 1381.69 410.167 1382.63 407.648C1383.6 405.11 1384.08 402.288 1384.08 399.182C1384.08 396.114 1383.61 393.348 1382.66 390.886C1381.73 388.405 1380.32 386.445 1378.43 385.006C1376.55 383.547 1374.2 382.818 1371.36 382.818C1368.63 382.818 1366.34 383.509 1364.48 384.892C1362.62 386.256 1361.22 388.169 1360.28 390.631C1359.33 393.074 1358.86 395.924 1358.86 399.182ZM1448.52 394.75V421H1441.81V362.818H1448.52V384.182H1449.09C1450.11 381.928 1451.64 380.138 1453.69 378.812C1455.75 377.468 1458.5 376.795 1461.93 376.795C1464.9 376.795 1467.51 377.392 1469.74 378.585C1471.98 379.759 1473.71 381.568 1474.94 384.011C1476.19 386.436 1476.81 389.523 1476.81 393.273V421H1470.11V393.727C1470.11 390.261 1469.21 387.581 1467.41 385.688C1465.63 383.775 1463.16 382.818 1460 382.818C1457.8 382.818 1455.83 383.282 1454.09 384.21C1452.36 385.138 1451 386.492 1450 388.273C1449.01 390.053 1448.52 392.212 1448.52 394.75Z" fill="white"/>
<rect width="677" height="32" transform="translate(806 469)" fill="white"/>
<path d="M812.955 496.591H810L818.545 473.318H821.455L830 496.591H827.045L820.091 477H819.909L812.955 496.591ZM814.045 487.5H825.955V490H814.045V487.5Z" fill="#27272A"/>
<path d="M852.54 473.318L859.449 492.909H859.721L866.63 473.318H869.585L861.04 496.591H858.13L849.585 473.318H852.54Z" fill="#27272A"/>
<path d="M880.508 473.318V496.591H877.69V473.318H880.508Z" fill="#27272A"/>
<path d="M903.366 479.136C903.23 477.985 902.677 477.091 901.707 476.455C900.737 475.818 899.548 475.5 898.139 475.5C897.108 475.5 896.207 475.667 895.434 476C894.669 476.333 894.071 476.792 893.639 477.375C893.215 477.958 893.002 478.621 893.002 479.364C893.002 479.985 893.15 480.519 893.446 480.966C893.749 481.405 894.135 481.773 894.605 482.068C895.074 482.356 895.567 482.595 896.082 482.784C896.597 482.966 897.071 483.114 897.502 483.227L899.866 483.864C900.472 484.023 901.146 484.242 901.889 484.523C902.639 484.803 903.355 485.186 904.036 485.67C904.726 486.148 905.294 486.761 905.741 487.511C906.188 488.261 906.411 489.182 906.411 490.273C906.411 491.53 906.082 492.667 905.423 493.682C904.771 494.697 903.817 495.504 902.559 496.102C901.309 496.701 899.79 497 898.002 497C896.336 497 894.893 496.731 893.673 496.193C892.461 495.655 891.506 494.905 890.809 493.943C890.12 492.981 889.73 491.864 889.639 490.591H892.548C892.624 491.47 892.919 492.197 893.434 492.773C893.957 493.341 894.616 493.765 895.411 494.045C896.215 494.318 897.078 494.455 898.002 494.455C899.078 494.455 900.044 494.28 900.9 493.932C901.756 493.576 902.434 493.083 902.934 492.455C903.434 491.818 903.684 491.076 903.684 490.227C903.684 489.455 903.468 488.826 903.036 488.341C902.605 487.856 902.036 487.462 901.332 487.159C900.627 486.856 899.866 486.591 899.048 486.364L896.184 485.545C894.366 485.023 892.927 484.277 891.866 483.307C890.805 482.337 890.275 481.068 890.275 479.5C890.275 478.197 890.627 477.061 891.332 476.091C892.044 475.114 892.999 474.356 894.196 473.818C895.4 473.273 896.745 473 898.23 473C899.73 473 901.063 473.269 902.23 473.807C903.396 474.337 904.321 475.064 905.002 475.989C905.692 476.913 906.055 477.962 906.093 479.136H903.366Z" fill="#27272A"/>
<path d="M930.798 473.318H933.616V488.727C933.616 490.318 933.241 491.739 932.491 492.989C931.748 494.231 930.699 495.212 929.343 495.932C927.987 496.644 926.396 497 924.57 497C922.745 497 921.154 496.644 919.798 495.932C918.442 495.212 917.389 494.231 916.639 492.989C915.896 491.739 915.525 490.318 915.525 488.727V473.318H918.343V488.5C918.343 489.636 918.593 490.648 919.093 491.534C919.593 492.413 920.305 493.106 921.23 493.614C922.161 494.114 923.275 494.364 924.57 494.364C925.866 494.364 926.98 494.114 927.911 493.614C928.843 493.106 929.555 492.413 930.048 491.534C930.548 490.648 930.798 489.636 930.798 488.5V473.318Z" fill="#27272A"/>
<path d="M944.678 496.591H941.724L950.269 473.318H953.178L961.724 496.591H958.769L951.815 477H951.633L944.678 496.591ZM945.769 487.5H957.678V490H945.769V487.5Z" fill="#27272A"/>
<path d="M969.829 496.591V473.318H972.647V494.091H983.465V496.591H969.829Z" fill="#27272A"/>
<path d="M1012.97 496.591H1005.79V473.318H1013.29C1015.55 473.318 1017.48 473.784 1019.08 474.716C1020.69 475.64 1021.92 476.97 1022.78 478.705C1023.63 480.432 1024.06 482.5 1024.06 484.909C1024.06 487.333 1023.63 489.42 1022.77 491.17C1021.9 492.913 1020.64 494.254 1018.99 495.193C1017.34 496.125 1015.33 496.591 1012.97 496.591ZM1008.61 494.091H1012.79C1014.71 494.091 1016.31 493.72 1017.57 492.977C1018.84 492.235 1019.78 491.178 1020.4 489.807C1021.02 488.436 1021.33 486.803 1021.33 484.909C1021.33 483.03 1021.03 481.413 1020.41 480.057C1019.8 478.693 1018.88 477.648 1017.66 476.92C1016.44 476.186 1014.93 475.818 1013.11 475.818H1008.61V494.091Z" fill="#27272A"/>
<path d="M1033.13 496.591H1030.18L1038.72 473.318H1041.63L1050.18 496.591H1047.22L1040.27 477H1040.08L1033.13 496.591ZM1034.22 487.5H1046.13V490H1034.22V487.5Z" fill="#27272A"/>
<path d="M1076.82 484.955C1076.82 487.409 1076.38 489.53 1075.49 491.318C1074.61 493.106 1073.39 494.485 1071.85 495.455C1070.3 496.424 1068.53 496.909 1066.55 496.909C1064.57 496.909 1062.8 496.424 1061.25 495.455C1059.71 494.485 1058.49 493.106 1057.61 491.318C1056.72 489.53 1056.28 487.409 1056.28 484.955C1056.28 482.5 1056.72 480.379 1057.61 478.591C1058.49 476.803 1059.71 475.424 1061.25 474.455C1062.8 473.485 1064.57 473 1066.55 473C1068.53 473 1070.3 473.485 1071.85 474.455C1073.39 475.424 1074.61 476.803 1075.49 478.591C1076.38 480.379 1076.82 482.5 1076.82 484.955ZM1074.1 484.955C1074.1 482.939 1073.76 481.239 1073.08 479.852C1072.42 478.466 1071.51 477.417 1070.37 476.705C1069.23 475.992 1067.96 475.636 1066.55 475.636C1065.14 475.636 1063.86 475.992 1062.72 476.705C1061.58 477.417 1060.68 478.466 1060 479.852C1059.34 481.239 1059 482.939 1059 484.955C1059 486.97 1059.34 488.67 1060 490.057C1060.68 491.443 1061.58 492.492 1062.72 493.205C1063.86 493.917 1065.14 494.273 1066.55 494.273C1067.96 494.273 1069.23 493.917 1070.37 493.205C1071.51 492.492 1072.42 491.443 1073.08 490.057C1073.76 488.67 1074.1 486.97 1074.1 484.955Z" fill="#27272A"/>
<path d="M1115.43 480.591C1115.18 479.826 1114.85 479.14 1114.44 478.534C1114.04 477.92 1113.56 477.398 1113 476.966C1112.45 476.534 1111.82 476.205 1111.11 475.977C1110.41 475.75 1109.63 475.636 1108.79 475.636C1107.42 475.636 1106.16 475.992 1105.03 476.705C1103.9 477.417 1103.01 478.466 1102.34 479.852C1101.67 481.239 1101.34 482.939 1101.34 484.955C1101.34 486.97 1101.68 488.67 1102.35 490.057C1103.03 491.443 1103.94 492.492 1105.09 493.205C1106.24 493.917 1107.54 494.273 1108.98 494.273C1110.31 494.273 1111.48 493.989 1112.5 493.42C1113.52 492.845 1114.32 492.034 1114.88 490.989C1115.46 489.936 1115.75 488.697 1115.75 487.273L1116.61 487.455H1109.61V484.955H1118.48V487.455C1118.48 489.371 1118.07 491.038 1117.25 492.455C1116.44 493.871 1115.32 494.97 1113.88 495.75C1112.46 496.523 1110.82 496.909 1108.98 496.909C1106.92 496.909 1105.1 496.424 1103.54 495.455C1101.99 494.485 1100.78 493.106 1099.91 491.318C1099.04 489.53 1098.61 487.409 1098.61 484.955C1098.61 483.114 1098.86 481.458 1099.35 479.989C1099.85 478.511 1100.56 477.254 1101.46 476.216C1102.37 475.178 1103.45 474.383 1104.69 473.83C1105.93 473.277 1107.3 473 1108.79 473C1110.02 473 1111.17 473.186 1112.23 473.557C1113.29 473.92 1114.24 474.439 1115.08 475.114C1115.92 475.78 1116.62 476.58 1117.18 477.511C1117.74 478.436 1118.13 479.462 1118.34 480.591H1115.43Z" fill="#27272A"/>
<path d="M1127.78 496.591V473.318H1135.65C1137.46 473.318 1138.96 473.629 1140.12 474.25C1141.29 474.864 1142.15 475.708 1142.71 476.784C1143.27 477.86 1143.56 479.083 1143.56 480.455C1143.56 481.826 1143.27 483.042 1142.71 484.102C1142.15 485.163 1141.29 485.996 1140.13 486.602C1138.98 487.201 1137.49 487.5 1135.69 487.5H1129.33V484.955H1135.6C1136.84 484.955 1137.84 484.773 1138.6 484.409C1139.37 484.045 1139.92 483.53 1140.26 482.864C1140.61 482.189 1140.78 481.386 1140.78 480.455C1140.78 479.523 1140.61 478.708 1140.26 478.011C1139.91 477.314 1139.35 476.777 1138.59 476.398C1137.82 476.011 1136.81 475.818 1135.56 475.818H1130.6V496.591H1127.78ZM1138.74 486.136L1144.46 496.591H1141.19L1135.56 486.136H1138.74Z" fill="#27272A"/>
<path d="M1153.69 496.591H1150.73L1159.28 473.318H1162.19L1170.73 496.591H1167.78L1160.82 477H1160.64L1153.69 496.591ZM1154.78 487.5H1166.69V490H1154.78V487.5Z" fill="#27272A"/>
<path d="M1178.84 496.591V473.318H1186.7C1188.53 473.318 1190.02 473.648 1191.18 474.307C1192.34 474.958 1193.21 475.841 1193.77 476.955C1194.33 478.068 1194.61 479.311 1194.61 480.682C1194.61 482.053 1194.33 483.299 1193.77 484.42C1193.22 485.542 1192.36 486.436 1191.2 487.102C1190.04 487.761 1188.56 488.091 1186.75 488.091H1181.11V485.591H1186.65C1187.9 485.591 1188.91 485.375 1189.67 484.943C1190.42 484.511 1190.97 483.928 1191.31 483.193C1191.66 482.451 1191.84 481.614 1191.84 480.682C1191.84 479.75 1191.66 478.917 1191.31 478.182C1190.97 477.447 1190.42 476.871 1189.65 476.455C1188.89 476.03 1187.87 475.818 1186.61 475.818H1181.65V496.591H1178.84Z" fill="#27272A"/>
<path d="M1203.63 496.591V473.318H1206.45V483.682H1218.86V473.318H1221.67V496.591H1218.86V486.182H1206.45V496.591H1203.63Z" fill="#27272A"/>
<path d="M1252.46 496.591H1245.28V473.318H1252.78C1255.03 473.318 1256.97 473.784 1258.57 474.716C1260.18 475.64 1261.41 476.97 1262.26 478.705C1263.12 480.432 1263.55 482.5 1263.55 484.909C1263.55 487.333 1263.12 489.42 1262.25 491.17C1261.39 492.913 1260.13 494.254 1258.48 495.193C1256.83 496.125 1254.82 496.591 1252.46 496.591ZM1248.09 494.091H1252.28C1254.2 494.091 1255.8 493.72 1257.06 492.977C1258.33 492.235 1259.27 491.178 1259.89 489.807C1260.51 488.436 1260.82 486.803 1260.82 484.909C1260.82 483.03 1260.51 481.413 1259.9 480.057C1259.29 478.693 1258.37 477.648 1257.15 476.92C1255.93 476.186 1254.41 475.818 1252.59 475.818H1248.09V494.091Z" fill="#27272A"/>
<path d="M1272.62 496.591H1269.66L1278.21 473.318H1281.12L1289.66 496.591H1286.71L1279.75 477H1279.57L1272.62 496.591ZM1273.71 487.5H1285.62V490H1273.71V487.5Z" fill="#27272A"/>
<path d="M1293.78 475.818V473.318H1311.23V475.818H1303.91V496.591H1301.09V475.818H1293.78Z" fill="#27272A"/>
<path d="M1318.3 496.591H1315.34L1323.89 473.318H1326.8L1335.34 496.591H1332.39L1325.43 477H1325.25L1318.3 496.591ZM1319.39 487.5H1331.3V490H1319.39V487.5Z" fill="#27272A"/>
<path d="M1356.93 496.591V473.318H1365.06C1366.68 473.318 1368.02 473.598 1369.07 474.159C1370.13 474.712 1370.91 475.458 1371.43 476.398C1371.94 477.33 1372.2 478.364 1372.2 479.5C1372.2 480.5 1372.02 481.326 1371.66 481.977C1371.32 482.629 1370.85 483.144 1370.28 483.523C1369.71 483.902 1369.09 484.182 1368.43 484.364V484.591C1369.14 484.636 1369.85 484.886 1370.57 485.341C1371.29 485.795 1371.9 486.447 1372.38 487.295C1372.87 488.144 1373.11 489.182 1373.11 490.409C1373.11 491.576 1372.84 492.625 1372.31 493.557C1371.78 494.489 1370.95 495.227 1369.8 495.773C1368.66 496.318 1367.17 496.591 1365.34 496.591H1356.93ZM1359.74 494.091H1365.34C1367.18 494.091 1368.48 493.735 1369.26 493.023C1370.04 492.303 1370.43 491.432 1370.43 490.409C1370.43 489.621 1370.23 488.894 1369.82 488.227C1369.42 487.553 1368.85 487.015 1368.11 486.614C1367.37 486.205 1366.49 486 1365.47 486H1359.74V494.091ZM1359.74 483.545H1364.97C1365.82 483.545 1366.59 483.379 1367.27 483.045C1367.96 482.712 1368.5 482.242 1368.9 481.636C1369.31 481.03 1369.52 480.318 1369.52 479.5C1369.52 478.477 1369.16 477.61 1368.45 476.898C1367.74 476.178 1366.61 475.818 1365.06 475.818H1359.74V483.545Z" fill="#27272A"/>
<path d="M1401.86 484.955C1401.86 487.409 1401.41 489.53 1400.53 491.318C1399.64 493.106 1398.42 494.485 1396.88 495.455C1395.33 496.424 1393.57 496.909 1391.58 496.909C1389.6 496.909 1387.83 496.424 1386.29 495.455C1384.74 494.485 1383.53 493.106 1382.64 491.318C1381.75 489.53 1381.31 487.409 1381.31 484.955C1381.31 482.5 1381.75 480.379 1382.64 478.591C1383.53 476.803 1384.74 475.424 1386.29 474.455C1387.83 473.485 1389.6 473 1391.58 473C1393.57 473 1395.33 473.485 1396.88 474.455C1398.42 475.424 1399.64 476.803 1400.53 478.591C1401.41 480.379 1401.86 482.5 1401.86 484.955ZM1399.13 484.955C1399.13 482.939 1398.79 481.239 1398.12 479.852C1397.45 478.466 1396.54 477.417 1395.4 476.705C1394.26 475.992 1392.99 475.636 1391.58 475.636C1390.17 475.636 1388.9 475.992 1387.75 476.705C1386.62 477.417 1385.71 478.466 1385.04 479.852C1384.37 481.239 1384.04 482.939 1384.04 484.955C1384.04 486.97 1384.37 488.67 1385.04 490.057C1385.71 491.443 1386.62 492.492 1387.75 493.205C1388.9 493.917 1390.17 494.273 1391.58 494.273C1392.99 494.273 1394.26 493.917 1395.4 493.205C1396.54 492.492 1397.45 491.443 1398.12 490.057C1398.79 488.67 1399.13 486.97 1399.13 484.955Z" fill="#27272A"/>
<path d="M1410.93 496.591H1407.98L1416.53 473.318H1419.43L1427.98 496.591H1425.03L1418.07 477H1417.89L1410.93 496.591ZM1412.03 487.5H1423.93V490H1412.03V487.5Z" fill="#27272A"/>
<path d="M1436.09 496.591V473.318H1443.95C1445.77 473.318 1447.26 473.629 1448.43 474.25C1449.59 474.864 1450.46 475.708 1451.02 476.784C1451.58 477.86 1451.86 479.083 1451.86 480.455C1451.86 481.826 1451.58 483.042 1451.02 484.102C1450.46 485.163 1449.6 485.996 1448.44 486.602C1447.28 487.201 1445.8 487.5 1443.99 487.5H1437.63V484.955H1443.9C1445.15 484.955 1446.15 484.773 1446.9 484.409C1447.67 484.045 1448.22 483.53 1448.56 482.864C1448.91 482.189 1449.09 481.386 1449.09 480.455C1449.09 479.523 1448.91 478.708 1448.56 478.011C1448.21 477.314 1447.66 476.777 1446.89 476.398C1446.13 476.011 1445.12 475.818 1443.86 475.818H1438.9V496.591H1436.09ZM1447.04 486.136L1452.77 496.591H1449.49L1443.86 486.136H1447.04Z" fill="#27272A"/>
<path d="M1468.22 496.591H1461.03V473.318H1468.53C1470.79 473.318 1472.72 473.784 1474.33 474.716C1475.94 475.64 1477.17 476.97 1478.02 478.705C1478.88 480.432 1479.31 482.5 1479.31 484.909C1479.31 487.333 1478.87 489.42 1478.01 491.17C1477.15 492.913 1475.89 494.254 1474.24 495.193C1472.59 496.125 1470.58 496.591 1468.22 496.591ZM1463.85 494.091H1468.03C1469.96 494.091 1471.55 493.72 1472.82 492.977C1474.08 492.235 1475.03 491.178 1475.65 489.807C1476.27 488.436 1476.58 486.803 1476.58 484.909C1476.58 483.03 1476.27 481.413 1475.66 480.057C1475.05 478.693 1474.13 477.648 1472.91 476.92C1471.69 476.186 1470.17 475.818 1468.35 475.818H1463.85V494.091Z" fill="#27272A"/>
</svg>
