<svg width="40" height="40" viewBox="0 0 40 40" fill="none" xmlns="http://www.w3.org/2000/svg">
<circle cx="20" cy="20" r="20" fill="#0E1235"/>
<path d="M19.3963 14.7144H14.0966V19.9852H19.3963V14.7144Z" fill="#F2CF63"/>
<path d="M14.0832 14.1468H19.3829V9.16391H14.0832V14.1468Z" fill="#6D94CE"/>
<path d="M8.17729 14.1468H13.477V9.16391H8.17729V14.1468Z" fill="#FE1D5B"/>
<path d="M20.5637 14.1381C20.5637 11.229 22.9399 8.86719 25.8633 8.86719V14.1381H20.5637Z" fill="#1A84DD"/>
<path d="M26.4709 20.0002L31.7705 20.0002L31.7705 14.7293L26.4709 14.7293L26.4709 20.0002Z" fill="#6D94CE"/>
<path d="M20.5637 19.9996L25.8633 14.7144H20.5637V19.9996Z" fill="#FE1D5B"/>
<path d="M31.7824 14.1381C31.7824 11.229 29.4062 8.86719 26.4827 8.86719V14.1381H31.7824Z" fill="#F2CF63"/>
<path d="M20.6641 25.8622C20.6641 22.9532 23.0403 20.5913 25.9638 20.5913V25.8622H20.6641Z" fill="#1A84DD"/>
<path d="M20.6641 26.4385L25.9638 31.7237V26.4385H20.6641Z" fill="#6D94CE"/>
<path d="M31.8682 31.7238C31.8682 28.8147 29.492 26.4529 26.5685 26.4529V31.7238H31.8682Z" fill="#FE1D5B"/>
<path d="M19.3959 26.4385C19.3959 29.3475 17.0197 31.7093 14.0962 31.7093V26.4385H19.3959Z" fill="#F2CF63"/>
<path d="M8.17757 26.4385C8.17757 29.3475 10.5538 31.7093 13.4773 31.7093V26.4385H8.17757Z" fill="#1A84DD"/>
<path d="M10.8274 25.8622C12.2909 25.8622 13.4773 24.6823 13.4773 23.2268C13.4773 21.7713 12.2909 20.5913 10.8274 20.5913C9.36394 20.5913 8.17757 21.7713 8.17757 23.2268C8.17757 24.6823 9.36394 25.8622 10.8274 25.8622Z" fill="#6D94CE"/>
<path d="M29.2183 25.8622C30.6818 25.8622 31.8682 24.6823 31.8682 23.2268C31.8682 21.7713 30.6818 20.5913 29.2183 20.5913C27.7549 20.5913 26.5685 21.7713 26.5685 23.2268C26.5685 24.6823 27.7549 25.8622 29.2183 25.8622Z" fill="#F2CF63"/>
<path d="M13.4773 14.7144H12.1092V19.9852H13.4773V14.7144Z" fill="#1A84DD"/>
<path d="M11.5042 14.7144H10.1361V19.9852H11.5042V14.7144Z" fill="#1A84DD"/>
<path d="M9.54608 14.7144H8.17795V19.9852H9.54608V14.7144Z" fill="#1A84DD"/>
<path d="M19.4533 20.5913H18.0852V25.8622H19.4533V20.5913Z" fill="#FE1D5B"/>
<path d="M17.4806 20.5913H16.1124V25.8622H17.4806V20.5913Z" fill="#FE1D5B"/>
<path d="M15.5221 20.5913H14.1539V25.8622H15.5221V20.5913Z" fill="#FE1D5B"/>
</svg>
