<svg width="140" height="140" viewBox="40 40 60 60" fill="none" xmlns="http://www.w3.org/2000/svg">
<path d="M70.144 61.4626L67.4067 74.4767C67.1525 75.692 66.0644 76.5724 64.8244 76.5724C64.0215 76.5724 63.2744 76.2128 62.7691 75.5896C62.3754 75.1029 62.177 74.5046 62.1863 73.8908L57.2417 75.168C57.4525 76.4639 57.9857 77.7008 58.8351 78.7579C60.3014 80.5777 62.4839 81.6224 64.8213 81.6224C68.4359 81.6224 71.598 79.0555 72.342 75.5183L75.2994 61.4656H70.144V61.4626Z" fill="#C1C1C1"/>
<path fill-rule="evenodd" clip-rule="evenodd" d="M93.313 52.2148C91.6545 50.1718 89.1931 49 86.5611 49H80.4696L79.4062 54.0469H86.5611C87.6647 54.0469 88.6971 54.5368 89.3915 55.3955C90.0859 56.2511 90.3556 57.364 90.1293 58.4429L89.0659 63.4929H94.2244L95.0707 59.4845C95.6101 56.9083 94.9715 54.2577 93.313 52.2148ZM60.1987 65.9696C60.1987 64.6024 61.3085 63.4926 62.6757 63.4926C64.0428 63.4926 65.1495 64.6024 65.1526 65.9696C65.1526 67.3367 64.0428 68.4466 62.6757 68.4466C61.3085 68.4466 60.1987 67.3367 60.1987 65.9696ZM83.7944 66.2242C83.7944 67.7326 82.5716 68.9554 81.0633 68.9554C79.5549 68.9554 78.3322 67.7326 78.3322 66.2242C78.3322 64.7158 79.5549 63.493 81.0633 63.493C82.5716 63.493 83.7944 64.7158 83.7944 66.2242ZM78.1122 85.953C81.7238 85.953 84.8827 83.3892 85.6267 79.8551L86.2994 76.6466H91.4578L90.565 80.8937C89.3343 86.7498 84.0953 91 78.1122 91H71.627L72.6903 85.953H78.1122ZM48.4447 59.1063L47.5209 63.496H52.6793L53.383 60.1479C54.127 56.6138 57.286 54.05 60.8975 54.05H66.0932L67.1565 49.0031H60.8975C54.9144 49 49.6754 53.2502 48.4447 59.1063ZM48.8799 81.554C48.6536 82.6328 48.9233 83.7457 49.6177 84.6013C50.3121 85.4601 51.3444 85.9499 52.448 85.953H59.3766L58.3133 90.9999H52.448C49.8161 90.9999 47.3547 89.8281 45.6962 87.7851C44.0377 85.7422 43.396 83.0916 43.9385 80.5154L44.3662 78.488L49.8223 77.0805L48.8799 81.554Z" fill="#8CDD00"/>
<path d="M86.4276 75.4132L80.729 77.5651C79.6411 77.9829 78.75 79.2782 78.75 80.4586V88.9197C78.75 89.7658 79.2991 90.8835 79.9726 91.3849L85.6713 95.6781C86.6763 96.4406 88.3237 96.4406 89.3287 95.6781L95.0274 91.3849C95.7009 90.873 96.25 89.7658 96.25 88.9197V80.4586C96.25 79.2886 95.3589 77.9829 94.271 77.5755L88.5724 75.4237C87.9922 75.1939 87.0182 75.1939 86.4276 75.4132Z" fill="#8CDD00"/>
<path d="M83.7622 89.64L85.2413 80.7309H88.5822C89.2666 80.7309 89.8205 80.8585 90.2439 81.1137C90.6673 81.366 90.9617 81.7154 91.127 82.1621C91.2923 82.6058 91.3271 83.1118 91.2314 83.6803C91.1386 84.2516 90.9341 84.7591 90.618 85.2028C90.3048 85.6465 89.8916 85.996 89.3782 86.2512C88.8649 86.5035 88.2646 86.6297 87.5773 86.6297H85.3631L85.5849 85.3029H87.5816C87.9818 85.3029 88.3212 85.2333 88.5996 85.0941C88.8809 84.9549 89.1027 84.7634 89.2651 84.5198C89.4275 84.2762 89.5348 83.9964 89.587 83.6803C89.6363 83.3642 89.6204 83.0857 89.5392 82.845C89.458 82.6043 89.2999 82.4173 89.065 82.2839C88.833 82.1476 88.5155 82.0794 88.1123 82.0794H86.6333L85.3761 89.64H83.7622Z" fill="#333333"/>
</svg>