<svg width="48" height="48" viewBox="0 0 48 48" fill="none" xmlns="http://www.w3.org/2000/svg">
<path d="M12.9 45.609V45.109V10.2V9.69995H13.4H25.8773C29.4549 9.69995 32.5641 10.4122 35.1863 11.8584C37.8078 13.2928 39.8261 15.3593 41.2345 18.0467C42.6551 20.7356 43.3545 23.9329 43.3545 27.6204C43.3545 31.319 42.6552 34.5274 41.235 37.2274C39.8263 39.9271 37.7961 42.0051 35.152 43.4507L12.9 45.609ZM12.9 45.609H13.4M12.9 45.609H13.4M13.4 45.609H25.775M13.4 45.609H25.775M25.775 45.609C29.3858 45.609 32.5175 44.8971 35.1512 43.4512L25.775 45.609ZM33.895 33.7857L33.8943 33.7871C33.1875 35.3292 32.1378 36.4533 30.7429 37.1826C29.3437 37.9088 27.5928 38.2852 25.4682 38.2852H21.2807V17.0238H25.4852C27.6102 17.0238 29.3612 17.4003 30.7605 18.1267C32.1429 18.8442 33.1871 19.9619 33.8943 21.5049L33.8955 21.5075C34.6159 23.0557 34.9909 25.0847 34.9909 27.6204C34.9909 30.1794 34.6157 32.2258 33.895 33.7857Z" stroke="white" stroke-opacity="0.4"/>
<path d="M4.5 38.4091V37.9091V3V2.5H5H17.4773C21.0549 2.5 24.1641 3.21228 26.7863 4.6584C29.4078 6.0928 31.4261 8.15932 32.8345 10.8467C34.2551 13.5356 34.9545 16.733 34.9545 20.4205C34.9545 24.1191 34.2552 27.3275 32.835 30.0275C31.4263 32.7271 29.3961 34.8051 26.752 36.2508L4.5 38.4091ZM4.5 38.4091H5M4.5 38.4091H5M5 38.4091H17.375M5 38.4091H17.375M17.375 38.4091C20.9858 38.4091 24.1175 37.6972 26.7512 36.2512L17.375 38.4091ZM25.495 26.5857L25.4943 26.5871C24.7875 28.1293 23.7378 29.2533 22.3429 29.9827C20.9437 30.7088 19.1928 31.0852 17.0682 31.0852H12.8807V9.82386H17.0852C19.2102 9.82386 20.9612 10.2004 22.3606 10.9267C23.7429 11.6443 24.7871 12.7619 25.4943 14.3049L25.4955 14.3075C26.2159 15.8558 26.5909 17.8847 26.5909 20.4205C26.5909 22.9794 26.2158 25.0258 25.495 26.5857Z" stroke="white"/>
</svg>
